<svg width="1200" height="420" viewBox="0 0 1200 420" fill="none" xmlns="http://www.w3.org/2000/svg" role="img" aria-labelledby="title desc">
  <title id="title">Abundance README banner</title>
  <desc id="desc">A branded Abundance banner with stronger readability and deep-search symbolism.</desc>
  <defs>
    <linearGradient id="canvas" x1="0" y1="0" x2="1200" y2="420" gradientUnits="userSpaceOnUse">
      <stop offset="0" stop-color="#06131C"/>
      <stop offset="1" stop-color="#07111A"/>
    </linearGradient>
    <linearGradient id="frame" x1="18" y1="18" x2="1182" y2="402" gradientUnits="userSpaceOnUse">
      <stop offset="0" stop-color="#071A25"/>
      <stop offset="0.48" stop-color="#1C455C"/>
      <stop offset="1" stop-color="#B78639"/>
    </linearGradient>
    <linearGradient id="panel" x1="46" y1="48" x2="678" y2="374" gradientUnits="userSpaceOnUse">
      <stop offset="0" stop-color="#051520" stop-opacity="0.96"/>
      <stop offset="0.52" stop-color="#082235" stop-opacity="0.94"/>
      <stop offset="1" stop-color="#0D2838" stop-opacity="0.88"/>
    </linearGradient>
    <linearGradient id="chip" x1="0" y1="0" x2="0" y2="38" gradientUnits="userSpaceOnUse">
      <stop offset="0" stop-color="#33576B"/>
      <stop offset="1" stop-color="#3E667A"/>
    </linearGradient>
    <linearGradient id="chipGold" x1="0" y1="0" x2="174" y2="34" gradientUnits="userSpaceOnUse">
      <stop offset="0" stop-color="#D4A048" stop-opacity="0.28"/>
      <stop offset="1" stop-color="#F0C56B" stop-opacity="0.12"/>
    </linearGradient>
    <linearGradient id="card" x1="0" y1="0" x2="0" y2="130" gradientUnits="userSpaceOnUse">
      <stop offset="0" stop-color="#FFF6DE" stop-opacity="0.22"/>
      <stop offset="1" stop-color="#FFF6DE" stop-opacity="0.08"/>
    </linearGradient>
    <radialGradient id="glow" cx="0" cy="0" r="1" gradientUnits="userSpaceOnUse" gradientTransform="translate(970 170) rotate(90) scale(170 180)">
      <stop offset="0" stop-color="#F3D086" stop-opacity="0.20"/>
      <stop offset="1" stop-color="#F3D086" stop-opacity="0"/>
    </radialGradient>
    <linearGradient id="lensFill" x1="862" y1="146" x2="990" y2="278" gradientUnits="userSpaceOnUse">
      <stop offset="0" stop-color="#FFF3D1" stop-opacity="0.22"/>
      <stop offset="1" stop-color="#FFF3D1" stop-opacity="0.10"/>
    </linearGradient>
  </defs>

  <rect width="1200" height="420" fill="url(#canvas)"/>

  <rect x="10" y="18" width="1180" height="384" rx="34" fill="url(#frame)"/>
  <rect x="10" y="18" width="1180" height="384" rx="34" stroke="#F2E0B0" stroke-opacity="0.24" stroke-width="2"/>

  <path d="M54 42H932" stroke="#2D556B" stroke-width="10" stroke-linecap="round"/>
  <path d="M932 42H1148" stroke="#D3A149" stroke-width="10" stroke-linecap="round"/>

  <rect x="46" y="48" width="632" height="346" rx="30" fill="url(#panel)"/>
  <path d="M76 92H648" stroke="#F2E0B0" stroke-opacity="0.10" stroke-width="1"/>
  <path d="M76 338H648" stroke="#F2E0B0" stroke-opacity="0.10" stroke-width="1"/>

  <circle cx="970" cy="170" r="164" fill="url(#glow)"/>
  <path d="M770 372C902 346 1044 346 1148 378" stroke="#072131" stroke-opacity="0.56" stroke-width="38" stroke-linecap="round"/>

  <g opacity="0.48">
    <path d="M756 134L838 118L892 156L978 146L1058 194" stroke="#F3E7C7" stroke-width="3" stroke-linecap="round"/>
    <path d="M774 254L854 226L916 254L982 212L1062 230" stroke="#F3E7C7" stroke-width="3" stroke-linecap="round"/>
    <circle cx="756" cy="134" r="8" fill="#F8EFD7"/>
    <circle cx="838" cy="118" r="8" fill="#F8EFD7"/>
    <circle cx="892" cy="156" r="8" fill="#F8EFD7"/>
    <circle cx="978" cy="146" r="8" fill="#F8EFD7"/>
    <circle cx="1058" cy="194" r="8" fill="#F8EFD7"/>
    <circle cx="774" cy="254" r="8" fill="#F8EFD7"/>
    <circle cx="854" cy="226" r="8" fill="#F8EFD7"/>
    <circle cx="916" cy="254" r="8" fill="#F8EFD7"/>
    <circle cx="982" cy="212" r="8" fill="#F8EFD7"/>
    <circle cx="1062" cy="230" r="8" fill="#F8EFD7"/>
  </g>

  <g transform="translate(806 84)">
    <rect width="112" height="112" rx="28" fill="#C9953B"/>
    <rect width="112" height="112" rx="28" stroke="#F8E6B9" stroke-opacity="0.34" stroke-width="2"/>
    <svg x="18" y="18" width="76" height="76" viewBox="0 0 1024 1024" xmlns="http://www.w3.org/2000/svg">
      <g transform="translate(0.000000,1024.000000) scale(0.100000,-0.100000)" fill="#FFF9E6" stroke="none">
        <path d="M5046 6792 c-29 -38 -124 -160 -209 -273 -85 -113 -162 -210 -170 -218 -9 -7 -24 -10 -34 -7 -23 7 -50 -20 -195 -199 -59 -71 -118 -141 -132 -154 l-26 -25 -53 50 c-28 27 -102 98 -163 157 -67 65 -119 107 -131 107 -23 0 -178 -154 -404 -402 -79 -87 -148 -158 -154 -158 -5 0 -39 23 -74 50 -36 28 -75 50 -87 50 -16 0 -66 -52 -190 -197 -93 -108 -233 -271 -311 -362 -79 -90 -143 -168 -143 -173 0 -4 66 -8 148 -8 674 -1 1068 -63 1447 -228 378 -164 706 -456 897 -797 29 -52 55 -95 59 -95 3 0 15 21 28 48 12 26 56 97 96 157 275 413 692 691 1238 824 237 58 444 79 875 88 172 3 311 10 310 14 -3 9 -576 683 -644 758 -49 53 -52 53 -153 -28 -35 -28 -69 -51 -76 -51 -15 0 -157 153 -338 363 -90 105 -124 137 -142 137 -26 0 -75 -38 -255 -200 l-114 -103 -38 43 c-21 24 -80 98 -130 164 -148 195 -176 226 -207 226 -35 0 -58 24 -215 230 -205 268 -215 280 -236 280 -12 0 -40 -26 -74 -68z"/>
        <path fill="#F7E7CE" d="M2353 5028 c-28 -31 -406 -539 -453 -608 -20 -30 -68 -134 -107 -230 -39 -96 -86 -212 -106 -257 -24 -55 -32 -83 -24 -85 7 -3 172 -1 367 4 195 4 850 9 1455 11 1030 2 1104 1 1165 -16 89 -24 139 -50 223 -114 117 -89 138 -98 242 -98 105 0 141 15 260 105 86 66 149 95 240 112 83 15 1034 18 2227 5 l747 -8 -46 103 c-25 57 -74 176 -108 265 -70 181 -55 156 -357 558 -117 155 -211 271 -222 273 -27 5 -126 -8 -126 -17 0 -7 108 -160 296 -416 60 -82 120 -165 134 -184 l23 -34 -104 7 c-57 4 -248 20 -424 36 -829 76 -1172 64 -1605 -55 -292 -80 -523 -196 -722 -362 -72 -60 -160 -159 -187 -210 -6 -13 -15 -23 -19 -23 -4 0 -20 20 -36 46 -41 65 -148 172 -244 242 -339 250 -807 391 -1357 409 -207 6 -428 -5 -880 -47 -452 -42 -550 -47 -539 -29 7 13 109 155 343 478 106 148 106 147 78 155 -12 3 -43 6 -68 6 -35 0 -50 -5 -66 -22z"/>
        <path fill="#E8D4B0" d="M1484 3766 c-38 -32 -39 -86 -1 -124 l27 -27 1571 -1 1571 -2 56 -55 c118 -116 251 -171 412 -171 158 0 278 48 399 160 l67 62 1575 7 1574 7 24 24 c36 34 34 89 -3 120 l-27 24 -1589 0 c-1103 0 -1597 -3 -1617 -11 -15 -6 -60 -42 -99 -80 -48 -46 -95 -80 -140 -102 -64 -29 -77 -32 -169 -32 -93 0 -105 2 -165 32 -40 20 -92 59 -136 101 -55 53 -81 71 -117 80 -34 9 -460 12 -1616 12 l-1570 0 -27 -24z"/>
      </g>
    </svg>
  </g>

  <g transform="translate(760 164)">
    <rect width="120" height="92" rx="20" fill="url(#card)" stroke="#F7E8C2" stroke-opacity="0.24" stroke-width="1.5"/>
    <path d="M24 32H96" stroke="#FFF4D9" stroke-opacity="0.84" stroke-width="6" stroke-linecap="round"/>
    <path d="M24 50H84" stroke="#FFF4D9" stroke-opacity="0.54" stroke-width="5" stroke-linecap="round"/>
    <path d="M24 66H72" stroke="#FFF4D9" stroke-opacity="0.38" stroke-width="5" stroke-linecap="round"/>
  </g>
  <g transform="translate(1018 220)">
    <rect width="126" height="94" rx="20" fill="url(#card)" stroke="#F7E8C2" stroke-opacity="0.24" stroke-width="1.5"/>
    <path d="M26 34H98" stroke="#FFF4D9" stroke-opacity="0.84" stroke-width="6" stroke-linecap="round"/>
    <path d="M26 52H86" stroke="#FFF4D9" stroke-opacity="0.54" stroke-width="5" stroke-linecap="round"/>
    <path d="M26 68H74" stroke="#FFF4D9" stroke-opacity="0.38" stroke-width="5" stroke-linecap="round"/>
  </g>
  <g transform="translate(868 286)">
    <rect width="126" height="94" rx="20" fill="url(#card)" stroke="#F7E8C2" stroke-opacity="0.24" stroke-width="1.5"/>
    <path d="M26 34H98" stroke="#FFF4D9" stroke-opacity="0.84" stroke-width="6" stroke-linecap="round"/>
    <path d="M26 52H86" stroke="#FFF4D9" stroke-opacity="0.54" stroke-width="5" stroke-linecap="round"/>
    <path d="M26 68H74" stroke="#FFF4D9" stroke-opacity="0.38" stroke-width="5" stroke-linecap="round"/>
  </g>

  <path d="M938 212L826 206" stroke="#F5E8C8" stroke-opacity="0.34" stroke-width="2.5"/>
  <path d="M938 212L1078 258" stroke="#F5E8C8" stroke-opacity="0.28" stroke-width="2.5"/>
  <path d="M930 244L930 286" stroke="#F5E8C8" stroke-opacity="0.24" stroke-width="2.5"/>

  <g opacity="0.96">
    <path d="M968 250L1014 296" stroke="#F7E3B2" stroke-width="15" stroke-linecap="round"/>
    <circle cx="930" cy="212" r="54" fill="url(#lensFill)" stroke="#F7E3B2" stroke-width="8"/>
    <path d="M898 180C909 171 923 166 940 167" stroke="#FFF4D4" stroke-opacity="0.44" stroke-width="3" stroke-linecap="round"/>
    <path d="M904 212L922 198L944 214L962 188" stroke="#F7E3B2" stroke-opacity="0.78" stroke-width="4" stroke-linecap="round" stroke-linejoin="round"/>
    <circle cx="904" cy="212" r="5.5" fill="#F7E3B2"/>
    <circle cx="922" cy="198" r="5.5" fill="#F7E3B2"/>
    <circle cx="944" cy="214" r="5.5" fill="#F7E3B2"/>
    <circle cx="962" cy="188" r="5.5" fill="#F7E3B2"/>
  </g>

  <text x="90" y="144" fill="#FFF9E8" font-family="Georgia, 'Times New Roman', serif" font-size="74" font-weight="700" letter-spacing="0.4">Abundance</text>
  <text x="90" y="198" fill="#F4E7C6" font-family="Arial, Helvetica, sans-serif" font-size="23" font-weight="700">
    Deep research with a streaming LangGraph backend
  </text>
  <text x="90" y="228" fill="#F4E7C6" font-family="Arial, Helvetica, sans-serif" font-size="23" font-weight="700">
    and a polished Next.js interface.
  </text>

  <g transform="translate(90 246)">
    <rect width="186" height="34" rx="17" fill="url(#chipGold)" stroke="#F8E6B8" stroke-opacity="0.18"/>
    <text x="93" y="22" text-anchor="middle" fill="#FFF3D4" font-family="Arial, Helvetica, sans-serif" font-size="14" font-weight="700">Deep Search Workflow</text>
  </g>

  <g transform="translate(90 292)">
    <rect width="142" height="38" rx="19" fill="url(#chip)" stroke="#F8E6B8" stroke-opacity="0.10"/>
    <text x="71" y="25" text-anchor="middle" fill="#FFF8E8" font-family="Arial, Helvetica, sans-serif" font-size="15" font-weight="700">LangGraph</text>
  </g>
  <g transform="translate(248 292)">
    <rect width="152" height="38" rx="19" fill="url(#chip)" stroke="#F8E6B8" stroke-opacity="0.10"/>
    <text x="76" y="25" text-anchor="middle" fill="#FFF8E8" font-family="Arial, Helvetica, sans-serif" font-size="15" font-weight="700">FastAPI SSE</text>
  </g>
  <g transform="translate(416 292)">
    <rect width="136" height="38" rx="19" fill="url(#chip)" stroke="#F8E6B8" stroke-opacity="0.10"/>
    <text x="68" y="25" text-anchor="middle" fill="#FFF8E8" font-family="Arial, Helvetica, sans-serif" font-size="15" font-weight="700">Next.js UI</text>
  </g>

</svg>
