<svg width="220" height="220" viewBox="0 0 220 220" fill="none" xmlns="http://www.w3.org/2000/svg" role="img" aria-labelledby="title desc">
  <title id="title">Abundance logo card</title>
  <desc id="desc">Gold logo tile using the original Abundance logo artwork.</desc>
  <defs>
    <linearGradient id="card" x1="36" y1="28" x2="184" y2="194" gradientUnits="userSpaceOnUse">
      <stop offset="0" stop-color="#D3A24A"/>
      <stop offset="1" stop-color="#9D6B1B"/>
    </linearGradient>
    <radialGradient id="halo" cx="0" cy="0" r="1" gradientUnits="userSpaceOnUse" gradientTransform="translate(110 110) rotate(90) scale(104)">
      <stop stop-color="#F9D88F" stop-opacity="0.45"/>
      <stop offset="1" stop-color="#F9D88F" stop-opacity="0"/>
    </radialGradient>
  </defs>

  <circle cx="110" cy="110" r="104" fill="url(#halo)"/>
  <rect x="36" y="36" width="148" height="148" rx="34" fill="url(#card)"/>
  <rect x="36" y="36" width="148" height="148" rx="34" stroke="#F8E6B9" stroke-opacity="0.28" stroke-width="2"/>

  <svg x="46" y="46" width="128" height="128" viewBox="0 0 1024 1024" xmlns="http://www.w3.org/2000/svg">
    <g transform="translate(0.000000,1024.000000) scale(0.100000,-0.100000)" fill="#FFF9E6" stroke="none">
      <path d="M5046 6792 c-29 -38 -124 -160 -209 -273 -85 -113 -162 -210 -170 -218 -9 -7 -24 -10 -34 -7 -23 7 -50 -20 -195 -199 -59 -71 -118 -141 -132 -154 l-26 -25 -53 50 c-28 27 -102 98 -163 157 -67 65 -119 107 -131 107 -23 0 -178 -154 -404 -402 -79 -87 -148 -158 -154 -158 -5 0 -39 23 -74 50 -36 28 -75 50 -87 50 -16 0 -66 -52 -190 -197 -93 -108 -233 -271 -311 -362 -79 -90 -143 -168 -143 -173 0 -4 66 -8 148 -8 674 -1 1068 -63 1447 -228 378 -164 706 -456 897 -797 29 -52 55 -95 59 -95 3 0 15 21 28 48 12 26 56 97 96 157 275 413 692 691 1238 824 237 58 444 79 875 88 172 3 311 10 310 14 -3 9 -576 683 -644 758 -49 53 -52 53 -153 -28 -35 -28 -69 -51 -76 -51 -15 0 -157 153 -338 363 -90 105 -124 137 -142 137 -26 0 -75 -38 -255 -200 l-114 -103 -38 43 c-21 24 -80 98 -130 164 -148 195 -176 226 -207 226 -35 0 -58 24 -215 230 -205 268 -215 280 -236 280 -12 0 -40 -26 -74 -68z m63 -311 c1 -90 6 -137 19 -173 l17 -49 -38 -72 c-21 -40 -74 -141 -118 -225 -111 -213 -105 -221 66 -92 66 49 123 86 126 82 11 -12 49 -135 49 -156 0 -13 -66 -95 -163 -203 -126 -141 -181 -211 -246 -317 -46 -75 -88 -136 -92 -136 -5 0 -22 46 -39 103 -86 285 -78 267 -150 320 -136 100 -141 105 -147 173 -5 54 -2 68 21 110 39 71 189 259 206 259 8 0 19 -15 25 -33 5 -18 14 -31 20 -29 5 2 47 67 91 145 54 93 125 196 210 302 149 187 141 187 143 -9z m-1249 -750 c-47 -95 -59 -131 -43 -131 4 0 37 16 74 35 38 19 70 35 73 35 8 0 66 -116 66 -131 0 -7 -38 -48 -85 -91 -47 -44 -85 -85 -85 -92 0 -7 17 -39 38 -72 21 -32 41 -65 46 -71 4 -7 -46 13 -111 44 -91 44 -131 58 -176 61 l-58 4 51 95 c27 53 50 102 50 110 0 21 -36 -1 -190 -116 -124 -92 -265 -179 -276 -169 -6 7 179 283 233 346 26 31 136 149 243 261 l195 205 3 -112 3 -111 -51 -100z m2441 200 l13 -82 -34 -69 c-19 -38 -32 -71 -29 -73 2 -2 34 -20 70 -40 36 -20 71 -42 77 -50 6 -7 18 -45 26 -83 8 -38 22 -91 30 -119 9 -27 16 -53 16 -57 0 -4 -57 37 -127 91 -71 54 -150 112 -178 128 -42 24 -59 45 -108 126 -33 54 -56 104 -53 112 3 8 65 64 138 124 151 125 139 126 159 -8z m699 -361 c42 -125 45 -124 -67 -16 -35 33 -63 64 -63 68 0 11 82 69 88 63 3 -3 22 -54 42 -115z m-1391 21 c13 -44 21 -85 19 -92 -4 -13 -321 -309 -326 -304 -4 4 272 474 279 475 3 0 16 -36 28 -79z m-2399 -53 c0 -29 -3 -62 -6 -73 -6 -19 -291 -242 -299 -233 -9 9 280 358 296 358 5 0 9 -24 9 -52z"/>
      <path fill="#F7E7CE" d="M2353 5028 c-28 -31 -406 -539 -453 -608 -20 -30 -68 -134 -107 -230 -39 -96 -86 -212 -106 -257 -24 -55 -32 -83 -24 -85 7 -3 172 -1 367 4 195 4 850 9 1455 11 1030 2 1104 1 1165 -16 89 -24 139 -50 223 -114 117 -89 138 -98 242 -98 105 0 141 15 260 105 86 66 149 95 240 112 83 15 1034 18 2227 5 l747 -8 -46 103 c-25 57 -74 176 -108 265 -70 181 -55 156 -357 558 -117 155 -211 271 -222 273 -27 5 -126 -8 -126 -17 0 -7 108 -160 296 -416 60 -82 120 -165 134 -184 l23 -34 -104 7 c-57 4 -248 20 -424 36 -829 76 -1172 64 -1605 -55 -292 -80 -523 -196 -722 -362 -72 -60 -160 -159 -187 -210 -6 -13 -15 -23 -19 -23 -4 0 -20 20 -36 46 -41 65 -148 172 -244 242 -339 250 -807 391 -1357 409 -207 6 -428 -5 -880 -47 -452 -42 -550 -47 -539 -29 7 13 109 155 343 478 106 148 106 147 78 155 -12 3 -43 6 -68 6 -35 0 -50 -5 -66 -22z m1277 -689 c359 -25 669 -100 930 -225 110 -53 301 -171 317 -196 4 -7 -9 -2 -28 11 -58 39 -269 138 -364 171 -363 127 -815 179 -1310 151 -115 -7 -343 -25 -505 -42 -365 -37 -620 -59 -682 -59 l-47 0 17 45 c19 52 -7 46 292 69 107 8 306 27 442 41 426 44 672 53 938 34z m3645 -10 c109 -8 676 -61 919 -87 l69 -7 19 -44 18 -44 -112 7 c-62 4 -295 25 -518 47 -550 53 -825 66 -1084 51 -515 -31 -870 -127 -1196 -323 l-35 -21 30 27 c110 96 320 207 521 273 378 125 805 163 1369 121z m-3340 -203 c186 -23 404 -69 546 -116 112 -37 329 -132 329 -144 0 -3 -30 6 -66 20 -81 30 -300 88 -414 109 -417 75 -864 83 -1575 25 -483 -39 -776 -60 -843 -60 l-52 0 20 40 c15 28 27 40 43 40 64 1 360 24 647 51 179 17 406 37 505 44 230 18 682 12 860 -9z m3140 14 c94 -6 343 -26 555 -45 417 -37 638 -55 682 -55 22 0 32 -8 49 -41 l21 -42 -134 7 c-73 4 -308 20 -523 37 -214 17 -446 34 -515 40 -372 28 -828 21 -1117 -16 -219 -29 -486 -93 -610 -146 -73 -31 -62 -14 17 26 233 118 531 196 850 224 69 6 141 13 160 15 83 7 408 5 565 -4z"/>
      <path fill="#E8D4B0" d="M1484 3766 c-38 -32 -39 -86 -1 -124 l27 -27 1571 -1 1571 -2 56 -55 c118 -116 251 -171 412 -171 158 0 278 48 399 160 l67 62 1575 7 1574 7 24 24 c36 34 34 89 -3 120 l-27 24 -1589 0 c-1103 0 -1597 -3 -1617 -11 -15 -6 -60 -42 -99 -80 -48 -46 -95 -80 -140 -102 -64 -29 -77 -32 -169 -32 -93 0 -105 2 -165 32 -40 20 -92 59 -136 101 -55 53 -81 71 -117 80 -34 9 -460 12 -1616 12 l-1570 0 -27 -24z"/>
    </g>
  </svg>
</svg>
