<svg version="1.1" xmlns="http://www.w3.org/2000/svg" style="display: block;" viewBox="200 1400 3700 1200" preserveAspectRatio="xMidYMid meet" shape-rendering="geometricPrecision">
<defs>
	<filter id="thicken">
		<feMorphology operator="dilate" radius="14"/>
	</filter>
	<filter id="thickenMountains">
		<feMorphology operator="dilate" radius="22"/>
	</filter>
	<linearGradient id="Gradient1" gradientUnits="userSpaceOnUse" x1="2754.75" y1="2405.03" x2="2762.84" y2="2320.5">
		<stop class="stop0" offset="0" stop-opacity="1" stop-color="#FFF9E6"/>
		<stop class="stop1" offset="1" stop-opacity="1" stop-color="#FFF9E6"/>
	</linearGradient>
	<linearGradient id="Gradient2" gradientUnits="userSpaceOnUse" x1="2834.59" y1="2463.45" x2="2837.64" y2="2437.74">
		<stop class="stop0" offset="0" stop-opacity="1" stop-color="#FFF9E6"/>
		<stop class="stop1" offset="1" stop-opacity="1" stop-color="#FFF9E6"/>
	</linearGradient>
	<linearGradient id="Gradient3" gradientUnits="userSpaceOnUse" x1="1369.91" y1="2428.41" x2="1354.42" y2="2313.61">
		<stop class="stop0" offset="0" stop-opacity="1" stop-color="#FFF9E6"/>
		<stop class="stop1" offset="1" stop-opacity="1" stop-color="#FFF9E6"/>
	</linearGradient>
	<linearGradient id="Gradient4" gradientUnits="userSpaceOnUse" x1="1451.96" y1="2333.77" x2="1455.42" y2="2173.02">
		<stop class="stop0" offset="0" stop-opacity="1" stop-color="#FFF9E6"/>
		<stop class="stop1" offset="1" stop-opacity="1" stop-color="#FFF9E6"/>
	</linearGradient>
	<linearGradient id="Gradient5" gradientUnits="userSpaceOnUse" x1="2665.2" y1="2340.14" x2="2661.76" y2="2180.94">
		<stop class="stop0" offset="0" stop-opacity="1" stop-color="#FFF9E6"/>
		<stop class="stop1" offset="1" stop-opacity="1" stop-color="#FFF9E6"/>
	</linearGradient>
</defs>
<g filter="url(#thickenMountains)">
<path transform="translate(0,0)" fill="#FFF9E6" d="M 2075.69 1431.19 C 2079.91 1431.42 2082.79 1431.81 2085.75 1435.21 C 2104.1 1456.31 2122.8 1478.44 2141.24 1499.32 C 2193.88 1559.3 2245.67 1620.03 2296.58 1681.49 C 2324.3 1714.82 2360.75 1761.41 2389.76 1791.75 C 2406.23 1774.27 2429.34 1743.73 2445.88 1724.16 C 2483.03 1680.23 2521.11 1637.09 2560.08 1594.77 C 2581.92 1615.61 2609.25 1653.03 2628.97 1677.29 L 2771.91 1854.28 C 2845.93 1943.05 2919.28 2032.38 2991.95 2122.26 C 3011.64 2146.47 3061.85 2201.89 3075.04 2223.06 L 3073.64 2226.05 C 3056.26 2226.31 2985.3 2197.41 2963.95 2189.73 C 2777.03 2122.49 2626.05 2080.44 2427.19 2124.13 C 2281.17 2155.08 2153.89 2243.79 2074.32 2370.07 C 2064.42 2386.75 2056.34 2400.73 2047.48 2418.12 C 2033.98 2395.98 2022.58 2372.46 2007.69 2350.5 C 1955.89 2274.17 1896.84 2214.64 1816.09 2169.61 C 1662.07 2083.73 1506.94 2082.28 1341.39 2128.21 C 1256.19 2151.85 1169.14 2188.05 1083.14 2211.53 C 1073.32 2214.21 1060.49 2218.94 1051.67 2214.08 C 1052.06 2201.62 1092.09 2154.99 1102.36 2141.1 L 1265.37 1922.83 L 1367.33 1785.06 C 1393.77 1748.89 1421.09 1709.37 1450.36 1675.78 C 1501.37 1702.78 1580.75 1773.34 1632.06 1810.9 C 1639.93 1805.22 1647.36 1798.64 1654.49 1792.07 C 1717.09 1734.37 1781.36 1679.1 1845.99 1623.74 C 1898.72 1578.55 1953.68 1535.9 2006.5 1490.81 C 2029.31 1471.34 2054.87 1452.58 2075.69 1431.19 z M 1813.33 1677.4 C 1895.24 1673.62 1912.5 1670.71 1877.96 1757.07 L 1880.59 1755.98 C 1902.2 1746.92 1991.85 1694.97 2009.87 1706.49 C 2052.35 1733.65 2058.36 1832.43 2065.97 1879.41 C 2100.01 1828.97 2119.82 1805.56 2161.71 1868.25 C 2180.91 1900.32 2195.57 1917.26 2226.01 1940.02 C 2228.33 1911.93 2230.07 1853.48 2249.38 1833.19 C 2271.8 1809.63 2315.11 1852.59 2332.13 1855.08 C 2336.96 1847.62 2332.67 1833.45 2331.94 1824.17 C 2366.2 1831.45 2376.86 1837.07 2409 1849.33 C 2390.96 1815.98 2361.08 1784.37 2336.38 1754.81 L 2227.75 1625.2 C 2196.47 1587.67 2164.77 1550.51 2132.63 1513.71 C 2117.61 1496.49 2095.02 1469.52 2078.58 1454.86 L 2072.64 1453.59 C 2019.52 1493.56 1963.83 1542.78 1912.32 1585.58 C 1885.53 1607.84 1833.35 1652.08 1813.33 1677.4 z M 2724.93 1824.1 C 2687.14 1776.18 2648.6 1728.86 2609.32 1682.16 C 2594.36 1664.25 2572.59 1636.56 2557.04 1620.14 C 2539.38 1640.29 2522.82 1661.34 2505.62 1681.87 C 2499.38 1689.31 2490.22 1697.47 2485.46 1705.66 C 2483.46 1709.1 2484.03 1713.34 2484.4 1717.17 C 2487.46 1749.12 2574.95 1887.44 2601.43 1908.6 C 2605.11 1911.54 2605.76 1910.97 2610.18 1910.28 C 2632.73 1892.36 2628.13 1832.98 2651.52 1836.97 C 2663.25 1838.97 2686.91 1848.41 2699.76 1853.44 C 2712.2 1858.59 2735.62 1872 2744.95 1857.52 C 2745.31 1844.11 2733.95 1834.41 2724.93 1824.1 z M 1454.5 1695.38 C 1423.6 1734.84 1261.67 1936.99 1249.26 1975.02 L 1252.02 1976.67 C 1256.26 1975.31 1261.75 1973.11 1265.19 1970.44 C 1279.72 1959.18 1323.69 1953.26 1330.89 1940.52 C 1329.61 1932.92 1327.89 1931.77 1330.99 1926.97 C 1336.31 1930.29 1336.93 1934.92 1339.1 1941.09 C 1359.86 1955.31 1404.98 1917.26 1410.31 1982.19 L 1411.35 1985.44 C 1423.15 1984.68 1441.18 1940.94 1443.94 1929.57 C 1463.92 1846.99 1460.65 1799.78 1537.73 1891.8 C 1561.02 1877.45 1602.7 1843.99 1620.32 1824.17 C 1594.73 1797.98 1535.88 1759.18 1506.34 1734.31 C 1500.77 1729.62 1459.96 1698.52 1454.5 1695.38 z"/>
<path transform="translate(0,0)" fill="#FFF9E6" d="M 2724.93 1824.1 C 2733.95 1834.41 2745.31 1844.11 2744.95 1857.52 C 2735.62 1872 2712.2 1858.59 2699.76 1853.44 C 2708.86 1853.03 2716.34 1854.81 2722.91 1849.91 C 2726.75 1842.84 2725.24 1832.57 2724.93 1824.1 z"/>
</g>
<g filter="url(#thicken)">
<path transform="translate(0,0)" fill="#FFF9E6" d="M 3121.06 2244.14 C 3137.19 2242.96 3238.72 2273.78 3251.02 2286.27 C 3310.39 2346.56 3366.25 2438.33 3415.78 2507.94 C 3439.73 2541.58 3469.71 2574.96 3486.35 2606.04 C 3433.12 2608.09 3368.91 2605.62 3315.06 2605.22 L 3041.04 2604.96 L 2470.33 2604.24 C 2373.38 2604.29 2276.43 2603.66 2179.49 2602.36 C 2070.81 2678.23 2024.65 2674.49 1915.74 2605.88 L 1069.5 2604.81 L 846.273 2606.1 C 767.312 2607.11 688.225 2609.24 609.408 2603.3 C 624.352 2578.15 648.637 2554.13 664.971 2528.98 C 712.229 2456.22 761.637 2384.63 814.805 2316.05 C 822.535 2306.08 830.303 2295.82 839.117 2286.8 C 859.451 2281.9 877.482 2276.83 897.48 2270.97 C 909.296 2267.74 947.819 2251.57 956.809 2254.28 C 941.952 2276.21 888.295 2286 877.366 2297.06 C 846.975 2327.81 781.053 2412.63 760.72 2456.24 C 759.767 2458.29 763.408 2461.35 765.559 2463.95 C 765.592 2476.84 743.284 2512.1 735.317 2523.87 C 736.22 2511.33 737.21 2498.8 738.288 2486.27 C 724.907 2498.39 696.823 2527.45 695.966 2545.52 C 695.313 2559.28 701.639 2563.86 710.086 2574.08 C 731.039 2573.1 751.997 2572.85 772.974 2571.62 C 785.051 2570.91 808.396 2565.94 818.67 2566.39 C 850.064 2567.79 874.31 2568.75 906.13 2567.01 L 1545.92 2526.01 C 1637.69 2520.49 1729.49 2515.54 1821.32 2511.15 C 1862.13 2509.42 1904.46 2507.34 1945.39 2507.43 C 1965.41 2507.48 1980.49 2534.75 1994.31 2548.23 C 2019.24 2572.52 2030.38 2576.1 2062.8 2576.91 C 2092.92 2559.8 2120.05 2531.58 2144.87 2507.3 C 2238.82 2508.12 2344.2 2515.95 2439.22 2520.04 C 2765.48 2534.1 3090.85 2556.78 3417.06 2573.36 C 3399.87 2550.73 3372.13 2524.6 3370.83 2497.66 C 3354.17 2482.15 3342.91 2462.01 3329.59 2443.25 C 3299.24 2400.5 3259.01 2337.46 3216.87 2306.22 C 3190.09 2286.37 3144.51 2270.05 3121.06 2244.14 z"/>
<path transform="translate(0,0)" fill="url(#Gradient5)" d="M 2205.87 2320.25 C 2287.18 2247.01 2354.35 2210.39 2462.47 2187.55 C 2503.84 2178.8 2529.41 2172.51 2572.99 2175.26 C 2733.36 2185.36 2876.1 2231.93 3025.78 2286.73 C 3049.86 2295.54 3128.58 2320.45 3148.55 2333.8 L 3147.98 2335.72 C 3128.65 2336.8 3014.1 2301.42 2986.57 2293.11 C 2728.96 2215.42 2432.1 2153.92 2200.51 2338.11 C 2197.93 2334.94 2198.82 2336.73 2197.86 2332.74 C 2200.92 2328.93 2202.09 2327.62 2204.35 2323.25 L 2205.87 2320.25 z"/>
<path transform="translate(0,0)" fill="url(#Gradient4)" d="M 974.046 2332.28 C 1002.62 2319.74 1034.08 2308.91 1063.56 2298.02 C 1280.61 2217.84 1549.53 2099.73 1770.89 2224.82 C 1832.95 2262.45 1869.03 2294.35 1915.23 2351.08 C 1856.19 2306.98 1814.77 2274.88 1742.17 2248.86 C 1438.68 2147.26 1259.55 2271.68 974.046 2332.28 z"/>
<path transform="translate(0,0)" fill="#FFF9E6" d="M 1468.32 2290.87 C 1482.71 2290.01 1497.12 2289.46 1511.53 2289.23 C 1612.03 2287.58 1766.54 2329.76 1839.67 2400.48 C 1802.34 2385.84 1771.68 2368.64 1731.29 2355.37 C 1572.89 2303.33 1414.8 2327.01 1255.53 2361.83 C 1216.46 2370.17 1176.93 2377.45 1137.74 2385.47 C 1056.99 2401.99 964.253 2424.03 882.114 2427.25 L 881.391 2425.97 C 892.353 2415.55 922.429 2411.65 937.886 2407.99 C 972.288 2400.08 1006.61 2391.84 1040.85 2383.26 L 1213.49 2340.18 C 1259.17 2328.67 1305.34 2316.12 1351.47 2306.77 C 1390.03 2298.93 1429.07 2293.61 1468.32 2290.87 z M 924.081 2417.5 C 1013.55 2410.8 1143.65 2379.7 1236.41 2361.39 C 1410.11 2323.84 1574.79 2293.14 1746.2 2355.42 C 1758.39 2359.85 1777.12 2368.93 1788.41 2370.87 C 1777.95 2362.5 1762.05 2355.65 1749.92 2349.41 C 1664.43 2305.44 1576.89 2291.32 1482.17 2294.95 C 1353.78 2304.28 1259.49 2333.87 1134.87 2364.68 L 1013.5 2395.27 C 985.882 2402.02 950.756 2409.37 924.081 2417.5 z"/>
<path transform="translate(0,0)" fill="url(#Gradient3)" d="M 1482.17 2294.95 C 1576.89 2291.32 1664.43 2305.44 1749.92 2349.41 C 1762.05 2355.65 1777.95 2362.5 1788.41 2370.87 C 1777.12 2368.93 1758.39 2359.85 1746.2 2355.42 C 1574.79 2293.14 1410.11 2323.84 1236.41 2361.39 C 1143.65 2379.7 1013.55 2410.8 924.081 2417.5 C 950.756 2409.37 985.882 2402.02 1013.5 2395.27 L 1134.87 2364.68 C 1259.49 2333.87 1353.78 2304.28 1482.17 2294.95 z"/>
<path transform="translate(0,0)" fill="#FFF9E6" d="M 1514.02 2404.9 C 1574.06 2403.02 1663.75 2409.31 1719.23 2430.98 C 1701.91 2432.79 1665.47 2426.47 1645.86 2424.96 C 1608.36 2422.38 1570.72 2422.49 1533.24 2425.3 C 1359.99 2438.94 1176.45 2473.34 1002.59 2496.77 C 975.726 2501.97 829.485 2521.87 814.523 2514.29 L 816.764 2515.83 L 814.209 2515.1 C 823.909 2508.12 1283.7 2429.35 1338.81 2421.83 C 1396.89 2413.9 1455.57 2409.24 1514.02 2404.9 z"/>
<path transform="translate(0,0)" fill="url(#Gradient2)" d="M 2477.26 2410.07 C 2670.64 2392.01 2849.87 2438.56 3038.91 2469.35 C 3096.74 2478.76 3214.12 2493.84 3266.59 2512.12 C 3224.42 2513.61 3160.89 2503.82 3117.65 2498.84 C 2998.7 2485.12 2879.35 2465.09 2761.01 2448.8 C 2719.77 2443.45 2678.44 2438.84 2637.04 2434.98 C 2622.33 2433.61 2583.06 2431.03 2569.39 2428.39 C 2538.43 2416.75 2484.86 2419.51 2450.22 2419.01 C 2453.84 2416.86 2472.11 2411.66 2477.26 2410.07 z"/>
<path transform="translate(0,0)" fill="url(#Gradient1)" d="M 2322.63 2363.19 C 2549.03 2261.48 2752.49 2308.21 2984.49 2366.89 C 3027.23 2377.88 3069.91 2389.09 3112.54 2400.52 C 3137.1 2406.93 3176.74 2414.85 3198.75 2425.4 C 2920.58 2385.19 2609.21 2268.43 2331.56 2363.91 C 2326.09 2365.31 2328.85 2364.93 2322.63 2363.19 z"/>
<path transform="translate(0,0)" fill="#FFF9E6" d="M 2297.86 2381.33 C 2292.25 2385.42 2253.98 2403.82 2248.76 2402.27 C 2249.4 2400.38 2250.37 2398.18 2252.14 2397.04 C 2370.56 2319.91 2512.69 2290.53 2652.69 2299.71 C 2695.88 2302.79 2738.86 2308.27 2781.44 2316.13 C 2835.69 2326.12 3197.73 2409.97 3212.76 2427.08 L 3211.8 2430.42 C 3197.21 2433.07 3109.45 2414.92 3087.34 2410.81 C 2833.71 2363.71 2587.47 2287.13 2331.67 2367.89 L 2331.56 2363.91 C 2609.21 2268.43 2920.58 2385.19 3198.75 2425.4 C 3176.74 2414.85 3137.1 2406.93 3112.54 2400.52 C 3069.91 2389.09 3027.23 2377.88 2984.49 2366.89 C 2752.49 2308.21 2549.03 2261.48 2322.63 2363.19 C 2313.75 2365.81 2301.29 2371.37 2294.53 2377.82 L 2294.89 2379.89 L 2297.86 2381.33 z"/>
<path transform="translate(0,0)" fill="#FFF9E6" d="M 1747.54 2256.89 C 1655.91 2224.06 1581.54 2211.64 1483.81 2216.81 C 1434.18 2219.42 1384.87 2226.36 1336.44 2237.55 C 1306.12 2244.55 1275.97 2252.3 1246.03 2260.8 C 1205.57 2272.55 955.817 2351.76 936.066 2342.58 C 945.07 2333.96 1228.22 2231.09 1260.21 2220.7 C 1298.6 2208.14 1337.54 2197.35 1376.92 2188.38 C 1481.51 2165.08 1576.49 2150.65 1681.4 2182.36 C 1716.61 2193 1748.9 2204.71 1780.24 2224.61 L 1770.89 2224.82 C 1549.53 2099.73 1280.61 2217.84 1063.56 2298.02 C 1034.08 2308.91 1002.62 2319.74 974.046 2332.28 C 1259.55 2271.68 1438.68 2147.26 1742.17 2248.86 L 1747.54 2256.89 z"/>
<path transform="translate(0,0)" fill="#FFF9E6" d="M 1770.89 2224.82 L 1780.24 2224.61 C 1828.77 2254.32 1913.04 2324.1 1937.01 2376.46 C 1877.74 2331.07 1821.96 2280.41 1747.54 2256.89 L 1742.17 2248.86 C 1814.77 2274.88 1856.19 2306.98 1915.23 2351.08 C 1869.03 2294.35 1832.95 2262.45 1770.89 2224.82 z"/>
<path transform="translate(0,0)" fill="#FFF9E6" d="M 2569.39 2428.39 C 2549.54 2428.78 2515.53 2426.75 2495.24 2424.99 C 2468.24 2422.66 2415.48 2431.2 2393.58 2426.12 L 2393.62 2424.18 C 2407 2416.24 2460.79 2411.32 2477.26 2410.07 C 2472.11 2411.66 2453.84 2416.86 2450.22 2419.01 C 2484.86 2419.51 2538.43 2416.75 2569.39 2428.39 z"/>
<path transform="translate(0,0)" fill="#FFF9E6" d="M 2200.51 2338.11 C 2196.53 2345.23 2164.16 2371.63 2156.11 2376.69 L 2155.02 2375.34 C 2163.2 2360.41 2191.72 2329.66 2205.87 2320.25 L 2204.35 2323.25 C 2202.09 2327.62 2200.92 2328.93 2197.86 2332.74 C 2198.82 2336.73 2197.93 2334.94 2200.51 2338.11 z"/>
<path transform="translate(0,0)" fill="#FFF9E6" d="M 2322.63 2363.19 C 2328.85 2364.93 2326.09 2365.31 2331.56 2363.91 L 2331.67 2367.89 C 2318.83 2372.17 2310.25 2375.84 2297.86 2381.33 L 2294.89 2379.89 L 2294.53 2377.82 C 2301.29 2371.37 2313.75 2365.81 2322.63 2363.19 z"/>
</g>
</svg>