<?xml version="1.0" standalone="no"?>
<!DOCTYPE svg PUBLIC "-//W3C//DTD SVG 20010904//EN"
 "http://www.w3.org/TR/2001/REC-SVG-20010904/DTD/svg10.dtd">
<svg version="1.0" xmlns="http://www.w3.org/2000/svg"
 width="1024.000000pt" height="1024.000000pt" viewBox="0 0 1024.000000 1024.000000"
 preserveAspectRatio="xMidYMid meet">

<g transform="translate(0.000000,1024.000000) scale(0.100000,-0.100000)"
fill="#000000" stroke="none">
<path d="M4870 8743 c-510 -38 -951 -159 -1405 -383 -333 -164 -617 -365 -889
-630 -312 -304 -531 -601 -715 -970 -210 -424 -317 -796 -366 -1275 -17 -163
-19 -518 -5 -690 70 -821 433 -1608 1019 -2209 350 -358 731 -620 1182 -812
303 -129 639 -218 981 -261 176 -22 711 -25 878 -5 812 99 1531 436 2094 982
554 538 907 1179 1055 1915 93 460 93 992 -1 1450 -190 935 -746 1771 -1516
2279 -545 360 -1115 554 -1776 606 -119 9 -430 11 -536 3z m715 -337 c738
-106 1374 -413 1884 -910 381 -372 656 -817 824 -1331 125 -381 171 -665 170
-1050 0 -340 -43 -633 -143 -965 -286 -948 -980 -1712 -1910 -2105 -290 -122
-575 -196 -910 -237 -138 -17 -602 -17 -745 0 -476 55 -952 220 -1368 471
-1165 705 -1786 2053 -1561 3390 94 560 310 1049 665 1507 106 137 380 413
524 528 497 396 1082 637 1728 711 164 19 686 13 842 -9z"/>
<path d="M2660 6650 c-38 -13 -66 -31 -92 -60 -72 -80 -68 -8 -68 -1357 0
-874 3 -1227 11 -1259 15 -58 62 -108 117 -125 37 -11 63 -10 170 5 327 46
820 25 1162 -50 149 -33 359 -103 479 -160 198 -94 409 -264 526 -424 58 -81
93 -104 155 -104 65 0 95 22 187 139 98 124 184 204 299 281 253 169 578 272
1029 326 166 20 662 16 787 -5 113 -20 165 -21 205 -6 42 15 92 68 103 109 6
22 10 493 10 1280 0 1183 -1 1247 -19 1285 -26 59 -90 111 -157 131 -82 23
-509 15 -704 -15 -574 -86 -1011 -273 -1400 -599 -104 -87 -289 -275 -317
-323 -20 -34 -27 -36 -39 -10 -19 40 -153 187 -252 276 -503 452 -1173 686
-1962 685 -145 -1 -184 -4 -230 -20z m628 -315 c672 -85 1210 -360 1563 -798
l79 -97 -64 -103 c-66 -107 -194 -343 -291 -536 -121 -243 -264 -424 -412
-521 -102 -66 -239 -111 -363 -118 -52 -3 -185 1 -295 8 -234 16 -447 18 -597
7 l-108 -8 0 1097 0 1097 183 -6 c100 -3 237 -13 305 -22z m4152 -1071 l0
-1095 -112 8 c-162 12 -541 8 -693 -6 -400 -38 -749 -127 -1020 -261 -179 -89
-323 -205 -456 -369 l-36 -43 -37 50 c-56 77 -218 225 -320 293 -100 68 -226
133 -344 180 -42 17 -78 32 -79 33 -2 2 21 18 50 37 76 49 198 169 271 268 86
115 134 198 294 506 74 143 162 304 196 358 235 377 591 699 971 877 269 126
562 209 845 239 152 16 170 17 328 19 l142 2 0 -1096z"/>
</g>
</svg>
